<svg id="Capa_1" data-name="Capa 1" xmlns="http://www.w3.org/2000/svg" viewBox="0 0 161.71 117.27"><defs><style>.cls-1{fill:#fff;}</style></defs><title>logo-siu</title><path class="cls-1" d="M137.47,104.18H6.36S0,104.18,0,110.73s6.36,6.54,6.36,6.54H137.47s6.56,0,6.56-6.54S137.47,104.18,137.47,104.18ZM81.84,114H55.65a3.28,3.28,0,0,1,0-6.55H81.84a3.28,3.28,0,0,1,0,6.55Z"/><path class="cls-1" d="M13.69,97.63l-.6-65.49c0-5.93,7.08-6.53,7.08-6.53h89.11L105,19.07H19.64s-13.09,0-13.09,13.09V97.63h7.14Z"/><polygon class="cls-1" points="137.49 45.11 130.94 43.1 130.94 97.63 137.49 97.63 137.49 45.11"/><path class="cls-1" d="M147.59,73.19l0-3.89a3.63,3.63,0,0,0-2.51-3.43L145,42.68l16.74,5.15L136.92,14.6,97.75,0,121,35.3,142.63,42l.09,23.92a3.64,3.64,0,0,0-2.47,3.46l0,3.89v2l0,6h.87l0-2.35h1.28l0,2.35h.87l0-2.36h1.28l0,2.35h.87l0-2.36h1.27l0,2.35h.88l0-6Z"/><path class="cls-1" d="M35.45,98,31.8,96.61a14.66,14.66,0,0,1-6-4.21,16.3,16.3,0,0,1-3.35-7L26,83.9a7.35,7.35,0,0,1,8.31,1.55,8.15,8.15,0,0,0,1.07,1,8.86,8.86,0,0,0,5.55,1.75,8.29,8.29,0,0,0,5.26-1.48,4.91,4.91,0,0,0,1.89-4.11V80.09A4.57,4.57,0,0,0,47,77a7.51,7.51,0,0,0-2.87-2c-1.17-.48-2.72-1-4.63-1.58a.6.6,0,0,0-.21-.09.38.38,0,0,1-.14-.06l-.51-.12A49.22,49.22,0,0,1,31,70.27a13.31,13.31,0,0,1-5-4.56,14.54,14.54,0,0,1-2.08-8.26V55.9a16.21,16.21,0,0,1,2.06-8.35,13.2,13.2,0,0,1,6-5.32,22.57,22.57,0,0,1,9.53-1.82,19.31,19.31,0,0,1,7.48,1.34,13.29,13.29,0,0,1,5.4,4,18.42,18.42,0,0,1,3.26,6.69l-3.42,1.58A7.09,7.09,0,0,1,46,52.42a8.25,8.25,0,0,0-.61-.58,8.89,8.89,0,0,0-5.63-1.65,7.35,7.35,0,0,0-4,1.34A4.53,4.53,0,0,0,34,55.32v1.9a4.89,4.89,0,0,0,1.17,3.4,8.53,8.53,0,0,0,2.91,2.06,50.25,50.25,0,0,0,4.79,1.72,2.73,2.73,0,0,1,.51.14c.15.07.31.12.47.18a1.33,1.33,0,0,1,.37.09,1.87,1.87,0,0,0,.33.1,39.63,39.63,0,0,1,7.09,2.83,12.85,12.85,0,0,1,4.71,4.49,14.46,14.46,0,0,1,1.9,7.9v2.41a15.73,15.73,0,0,1-2.12,8.35A13.48,13.48,0,0,1,50,96.21,23.41,23.41,0,0,1,40.32,98Z"/><path class="cls-1" d="M77.11,98H66.71V40.48h4a6.45,6.45,0,0,1,6.45,6.45Z"/><path class="cls-1" d="M95,95.93a13.89,13.89,0,0,1-5.89-6.1,21.22,21.22,0,0,1-2-9.62V40.38h3.8a6.44,6.44,0,0,1,6.45,6.44V80.49a7.63,7.63,0,0,0,1.82,5.43,6.69,6.69,0,0,0,5.13,2,6.79,6.79,0,0,0,5.18-2,7.6,7.6,0,0,0,1.84-5.43V40.38h3.8a6.44,6.44,0,0,1,6.44,6.44V80.21a21,21,0,0,1-2,9.62,14,14,0,0,1-5.92,6.1,19.3,19.3,0,0,1-9.3,2.1A19.2,19.2,0,0,1,95,95.93Z"/></svg>