<?xml version="1.0" encoding="utf-8"?>
<!-- Generator: Adobe Illustrator 23.0.0, SVG Export Plug-In . SVG Version: 6.00 Build 0)  -->
<svg version="1.1" xmlns="http://www.w3.org/2000/svg" xmlns:xlink="http://www.w3.org/1999/xlink" x="0px" y="0px"
	 viewBox="0 0 286 200" style="enable-background:new 0 0 286 200;" xml:space="preserve">
<style type="text/css">
	.st0{fill:#594892;}
	.st1{fill:none;stroke:#333333;stroke-miterlimit:10;}
	.st2{fill:#333333;}
</style>
<g id="laptop-siu">
	<path class="st0" d="M245.18,164.4h-17.85V56.51c0-5.8-4.75-10.55-10.55-10.55H50.16c-5.8,0-10.55,4.75-10.55,10.55V164.4H21.76
		c-3.7,0-6.73,3.03-6.73,6.73v0.39c0,3.7,3.03,6.73,6.73,6.73h223.42c3.7,0,6.73-3.03,6.73-6.73v-0.39
		C251.91,167.43,248.89,164.4,245.18,164.4z M219.3,164.4h-60.29v0.67c0,1.34-1.1,2.44-2.44,2.44h-46.2c-1.34,0-2.44-1.1-2.44-2.44
		v-0.67H47.64V57.45c0-1.91,1.55-3.47,3.47-3.47h164.73c1.91,0,3.47,1.55,3.47,3.47V164.4z"/>
</g>
<g id="laptop-siu-corte">
	<path class="st0" d="M245.18,164.4h-17.85V80.75l-8.03-2.47v86.12h-60.29v0.67c0,1.34-1.1,2.44-2.44,2.44h-46.2
		c-1.34,0-2.44-1.1-2.44-2.44v-0.67H47.64V57.45c0-1.91,1.55-3.47,3.47-3.47h136.46l-5.27-8.02H50.16c-5.8,0-10.55,4.75-10.55,10.55
		V164.4H21.76c-3.7,0-6.73,3.03-6.73,6.73v0.39c0,3.7,3.03,6.73,6.73,6.73h223.42c3.7,0,6.73-3.03,6.73-6.73v-0.39
		C251.91,167.43,248.89,164.4,245.18,164.4z"/>
</g>
<g id="virrete-blanco">
</g>
<g id="text-siu">
	<g>
		<path class="st1" d="M107.8,110.64c-2.36-1.27-5.34-2.46-8.93-3.57c-0.17-0.03-0.3-0.07-0.42-0.12c-0.12-0.05-0.27-0.09-0.47-0.12
			c-0.2-0.06-0.4-0.14-0.59-0.22c-0.2-0.08-0.41-0.14-0.64-0.17c-2.57-0.82-4.58-1.54-6.04-2.18s-2.67-1.5-3.66-2.59
			c-0.99-1.09-1.48-2.52-1.48-4.28v-2.4c0-2.02,0.74-3.61,2.23-4.77c1.24-0.96,2.92-1.53,5.05-1.69c2.2-0.17,5.43,0.65,7.09,2.08
			c0.27,0.23,0.52,0.47,0.77,0.73c2.65,2.79,6.74,3.69,10.24,2.07l4.3-1.99c-0.92-3.36-2.29-6.17-4.11-8.44
			c-1.81-2.27-4.08-3.96-6.8-5.09c-2.72-1.13-5.86-1.69-9.42-1.69c-4.72,0-8.72,0.77-12.02,2.3c-3.3,1.53-5.81,3.77-7.54,6.71
			c-1.73,2.94-2.6,6.45-2.6,10.52v1.96c0,4.34,0.87,7.81,2.62,10.4c1.75,2.59,3.87,4.51,6.36,5.75s5.7,2.45,9.62,3.62l0.64,0.15
			c0.03,0.03,0.09,0.06,0.17,0.07c0.08,0.02,0.17,0.06,0.27,0.12c2.41,0.72,4.35,1.38,5.84,1.98c1.48,0.6,2.69,1.43,3.61,2.47
			c0.92,1.04,1.39,2.37,1.39,3.96v3.13c0,2.22-0.79,3.95-2.38,5.19c-1.58,1.24-3.79,1.86-6.63,1.86c-2.74,0-5.07-0.73-7-2.2
			c-0.48-0.37-0.93-0.78-1.35-1.23c-2.63-2.84-6.91-3.5-10.47-1.95l-4.48,1.95c0.83,3.49,2.23,6.41,4.23,8.76
			c1.99,2.35,4.53,4.12,7.59,5.31c3.07,1.19,4.6,1.79,4.6,1.79s2.04,0,6.14,0c4.72,0,8.77-0.77,12.17-2.3
			c3.4-1.53,5.99-3.77,7.77-6.7c1.78-2.94,2.67-6.44,2.67-10.52v-3.04c0-4.14-0.8-7.46-2.4-9.96
			C112.14,113.8,110.16,111.92,107.8,110.64z"/>
		<path class="st1" d="M131.79,76.27h-4.98v72.51h13.11V84.4C139.92,79.91,136.28,76.27,131.79,76.27z"/>
		<path class="st1" d="M187.85,76.14h-4.78v50.56c0,2.94-0.78,5.22-2.33,6.85s-3.73,2.45-6.53,2.45c-2.77,0-4.92-0.82-6.46-2.45
			s-2.3-3.92-2.3-6.85V84.27c0-4.49-3.64-8.13-8.13-8.13h-4.78v50.22c0,4.72,0.85,8.76,2.55,12.12c1.7,3.36,4.17,5.93,7.42,7.69
			c3.25,1.77,7.15,2.65,11.7,2.65c4.55,0,8.46-0.88,11.73-2.65c3.26-1.76,5.76-4.33,7.47-7.69c1.71-3.36,2.57-7.4,2.57-12.12V84.27
			C195.97,79.78,192.33,76.14,187.85,76.14z"/>
	</g>
</g>
<g id="virrete">
	<path class="st2" d="M243.78,123.39l-0.03-5.85c-0.01-2.42-1.6-4.45-3.77-5.17l-0.13-34.88l25.19,7.74l-37.31-50L168.8,13.26
		l34.9,53.11l32.62,10.03l0.14,35.98c-2.17,0.75-3.73,2.79-3.72,5.21l0.03,5.85l0.02,3.03l0.05,9.08l1.31-0.01l-0.05-3.54l1.92-0.01
		l0.05,3.54l1.31-0.01l-0.05-3.54l1.92-0.01l0.05,3.54l1.31-0.01l-0.05-3.54l1.92-0.01l0.05,3.54l1.31-0.01l-0.05-9.08
		L243.78,123.39z"/>
</g>
</svg>
