<svg id="Capa_1" data-name="Capa 1" xmlns="http://www.w3.org/2000/svg" viewBox="0 0 636.05 298.49"><defs><style>.cls-1{fill:#fff;}.cls-2{fill:#30559f;}.cls-3{fill:#cb4f2b;}.cls-4{fill:#594892;}</style></defs><title>logo-sunedu</title><path class="cls-1" d="M123.61,260.36a1.69,1.69,0,0,0-.51,1.21v72.61l0,.07,0,.23.07.27v.05l.09.14.13.23.15.17.19.17.21.13.13.08.11,0,.11,0,.43.07H266a1.77,1.77,0,0,0,1.17-.47L320.29,284h0l.26-.36.05-.09.14-.4h0l.06-.34V210.22a1.69,1.69,0,0,0-1.69-1.68H267.18l10.31-10h0l.26-.35.06-.09.14-.39h0l0-.35V124.77a1.68,1.68,0,0,0-1.67-1.67H224.51l10.6-10.24h0l.27-.34.05-.11.14-.39h0l0-.35V39.05a1.68,1.68,0,0,0-1.68-1.67H92.72l-.25,0h-.08l-.4.14-.09.05-.32.23,0,0L38.43,89.21a1.63,1.63,0,0,0-.51,1.19v72.67l0,.25.06.24,0,.07.07.14.13.22.16.18.18.17.21.13.13.07.11,0,.12,0,.44.07H91.41l-10.6,10.23a1.75,1.75,0,0,0-.51,1.22V248.8l0,.23.06.26,0,.06.07.14.14.22.16.18.17.17.23.12.11.08.12.05.11,0,.44.07h51.94Z" transform="translate(-37.92 -37.38)"/><polygon class="cls-2" points="138.3 176.79 88.54 224.91 88.54 292.85 138.3 244.75 138.3 176.79"/><polygon class="cls-2" points="140.65 247.12 91 295.13 227.4 295.13 277.06 247.12 140.65 247.12"/><rect class="cls-2" x="141.66" y="174.52" width="137.87" height="69.26"/><polygon class="cls-3" points="3.35 53.74 3.35 121.67 53.12 73.57 53.12 5.63 3.35 53.74"/><rect class="cls-3" x="56.47" y="3.35" width="137.87" height="69.24"/><polygon class="cls-3" points="5.82 123.96 56.59 123.96 56.67 123.87 96.46 85.89 181.6 85.89 191.88 75.95 55.47 75.95 5.82 123.96"/><polygon class="cls-4" points="95.5 159.29 95.5 91.35 45.73 139.46 45.73 207.41 95.1 159.68 95.5 159.29"/><rect class="cls-4" x="98.86" y="89.07" width="137.88" height="69.25"/><polygon class="cls-4" points="48.21 209.68 99.49 209.68 139.26 171.33 224.28 171.33 234.26 161.68 97.87 161.68 48.21 209.68"/><path class="cls-1" d="M425.2,213.68c-3.82,0-5.76,1.34-5.76,4v10.86c0,2.65,1.94,4,5.76,4s5.8-1.35,5.8-4V217.67C431,215,429.05,213.68,425.2,213.68ZM429,228.32c0,1-.39,2.4-3.79,2.4s-3.77-1.36-3.77-2.4V217.88c0-1,.39-2.41,3.77-2.41s3.79,1.38,3.79,2.41Zm20-14.43h-.71a.57.57,0,0,0-.61.61V228l-.21-.37-7.59-13.48a.6.6,0,0,0-.51-.26h-.71a.57.57,0,0,0-.61.61v17.2a.57.57,0,0,0,.61.62h.71a.56.56,0,0,0,.59-.62V218.18a4.62,4.62,0,0,0,.28.48L447.69,232a.59.59,0,0,0,.56.32H449a.55.55,0,0,0,.58-.62V214.5A.54.54,0,0,0,449,213.89Zm13.57.54a.65.65,0,0,0-.68-.54H461a.65.65,0,0,0-.68.52L455,231.6a.52.52,0,0,0,0,.5.54.54,0,0,0,.48.22h.76a.63.63,0,0,0,.65-.53l1.48-4.88h5.88l1.53,4.87a.64.64,0,0,0,.66.54h.81a.53.53,0,0,0,.48-.22.49.49,0,0,0,0-.48ZM459,225.19l2.11-6.7c.11-.36.23-.86.33-1.34.11.5.24,1,.36,1.4l2.05,6.64Zm191.15-12.28h.66a.74.74,0,0,0,.61-.31l2.11-3.12a.48.48,0,0,0,.09-.54.51.51,0,0,0-.48-.25h-.84a.74.74,0,0,0-.65.41l-1.9,3.05a.48.48,0,0,0-.07.51A.49.49,0,0,0,650.13,212.91Zm-267.48,1.51a.67.67,0,0,0-.69-.53h-.81a.67.67,0,0,0-.68.52l-5.32,17.19a.55.55,0,0,0,0,.5.54.54,0,0,0,.48.22h.76a.62.62,0,0,0,.65-.53l1.49-4.88h5.88l1.53,4.87a.62.62,0,0,0,.65.54h.81a.54.54,0,0,0,.48-.22.49.49,0,0,0,0-.48Zm-3.56,10.77,2.11-6.69c.11-.37.22-.87.33-1.35.12.49.24,1,.36,1.4l2.06,6.64Zm-10-11.3h-.7a.57.57,0,0,0-.61.61V228l-.21-.37L360,214.15a.56.56,0,0,0-.51-.26h-.71a.57.57,0,0,0-.61.61v17.2a.57.57,0,0,0,.61.62h.71a.56.56,0,0,0,.59-.62V218.18c.09.16.18.33.28.48l7.5,13.34a.56.56,0,0,0,.55.32h.7a.56.56,0,0,0,.59-.62V214.5A.55.55,0,0,0,369.06,213.89Zm29.5-.21c-3.8,0-5.65,1.3-5.65,4v10.86c0,2.69,1.85,4,5.65,4s5.65-1.31,5.65-4v-1.7a.53.53,0,0,0-.59-.59h-.76a.55.55,0,0,0-.61.59v1.49c0,1.12-.42,2.4-3.69,2.4s-3.66-1.28-3.66-2.4V217.88c0-1.12.42-2.41,3.66-2.41s3.69,1.29,3.69,2.41V219a.58.58,0,0,0,.61.64h.76a.56.56,0,0,0,.59-.64v-1.37C404.21,215,402.36,213.68,398.56,213.68Zm13.27.21H411a.57.57,0,0,0-.61.61v17.2a.57.57,0,0,0,.61.62h.79a.55.55,0,0,0,.58-.62V214.5A.54.54,0,0,0,411.83,213.89Zm261.06,0h-.71a.57.57,0,0,0-.61.61V228l-.2-.37-7.6-13.48a.58.58,0,0,0-.51-.26h-.71a.58.58,0,0,0-.61.61v17.2a.58.58,0,0,0,.61.62h.71a.56.56,0,0,0,.59-.62V218.18l.28.48,7.5,13.34a.57.57,0,0,0,.55.32h.71a.55.55,0,0,0,.58-.62V214.5A.54.54,0,0,0,672.89,213.89Zm-76-.21c-3.8,0-5.64,1.3-5.64,4v10.86c0,2.69,1.84,4,5.64,4s5.65-1.31,5.65-4v-1.7a.53.53,0,0,0-.58-.59h-.77a.55.55,0,0,0-.61.59v1.49c0,1.12-.42,2.4-3.69,2.4s-3.66-1.28-3.66-2.4V217.88c0-1.12.42-2.41,3.66-2.41s3.69,1.29,3.69,2.41V219a.59.59,0,0,0,.61.64H602a.56.56,0,0,0,.58-.64v-1.37C602.55,215,600.7,213.68,596.9,213.68Zm16,.75a.65.65,0,0,0-.68-.54h-.81a.65.65,0,0,0-.68.52l-5.31,17.19a.5.5,0,0,0,0,.5.52.52,0,0,0,.48.22h.76a.63.63,0,0,0,.65-.53l1.48-4.88h5.88l1.53,4.87a.64.64,0,0,0,.66.54h.81a.54.54,0,0,0,.48-.22.49.49,0,0,0,0-.48Zm-3.56,10.76,2.11-6.7c.12-.36.23-.86.34-1.34.11.5.24,1,.36,1.4l2,6.64Zm17.91-11.51c-3.81,0-5.65,1.3-5.65,4v10.86c0,2.69,1.84,4,5.65,4s5.64-1.31,5.64-4v-1.7a.53.53,0,0,0-.58-.59h-.76a.56.56,0,0,0-.62.59v1.49c0,1.12-.41,2.4-3.68,2.4s-3.67-1.28-3.67-2.4V217.88c0-1.12.42-2.41,3.67-2.41s3.68,1.29,3.68,2.41V219a.58.58,0,0,0,.62.64h.76a.56.56,0,0,0,.58-.64v-1.37C632.86,215,631,213.68,627.22,213.68Zm11.69.21h-.79a.58.58,0,0,0-.62.61v17.2a.58.58,0,0,0,.62.62h.79a.55.55,0,0,0,.58-.62V214.5A.54.54,0,0,0,638.91,213.89Zm11.8-.21c-3.82,0-5.76,1.34-5.76,4v10.86c0,2.65,1.94,4,5.76,4s5.8-1.35,5.8-4V217.67C656.51,215,654.56,213.68,650.71,213.68Zm3.79,14.64c0,1-.4,2.4-3.79,2.4s-3.77-1.36-3.77-2.4V217.88c0-1,.39-2.41,3.77-2.41s3.79,1.38,3.79,2.41Zm-91.18-14.43h-5.2a.56.56,0,0,0-.58.61v17.2a.55.55,0,0,0,.58.62h5.2c4.78,0,5.78-2.18,5.78-4V217.88C569.1,216.06,568.1,213.89,563.32,213.89Zm3.79,14.22c0,1-.39,2.4-3.79,2.4h-3.8V215.69h3.8c3.4,0,3.79,1.37,3.79,2.4Zm-40.5,2.41h-7.88v-7h7.1a.57.57,0,0,0,.61-.62v-.54a.56.56,0,0,0-.61-.62h-7.1v-6.06h7.57a.56.56,0,0,0,.61-.61v-.58a.55.55,0,0,0-.61-.61h-8.94a.58.58,0,0,0-.62.61v17.21a.57.57,0,0,0,.59.61h9.28a.57.57,0,0,0,.62-.61v-.58A.56.56,0,0,0,526.61,230.52Zm-22.68-16.63h-5.19a.57.57,0,0,0-.59.61v17.2a.56.56,0,0,0,.59.62h5.19c4.78,0,5.78-2.18,5.78-4V217.88C509.71,216.06,508.71,213.89,503.93,213.89Zm3.8,14.22c0,1-.4,2.4-3.8,2.4h-3.79V215.69h3.79c3.4,0,3.8,1.37,3.8,2.4Zm44.55,2.41H544.4v-7h7.09a.57.57,0,0,0,.61-.62v-.54a.56.56,0,0,0-.61-.62H544.4v-6.06H552a.56.56,0,0,0,.61-.61v-.58a.55.55,0,0,0-.61-.61h-9a.57.57,0,0,0-.61.61v17.21a.57.57,0,0,0,.59.61h9.28a.55.55,0,0,0,.61-.61v-.58A.55.55,0,0,0,552.28,230.52Zm33.09-16.63h-.79a.57.57,0,0,0-.61.61v13.83c0,1-.39,2.39-3.79,2.39s-3.79-1.37-3.79-2.39V214.5a.55.55,0,0,0-.59-.61H575a.57.57,0,0,0-.61.61v14c0,1.82,1,4,5.78,4,3.83,0,5.78-1.35,5.78-4v-14A.55.55,0,0,0,585.37,213.89ZM482.8,230.52h-7.46v-16a.55.55,0,0,0-.59-.61H474a.57.57,0,0,0-.61.61v17.21a.55.55,0,0,0,.56.61h8.89a.56.56,0,0,0,.61-.61v-.58A.55.55,0,0,0,482.8,230.52Z" transform="translate(-37.92 -37.38)"/><path class="cls-1" d="M385.35,257.08h-.79a.57.57,0,0,0-.61.61V271.5c0,1-.39,2.4-3.79,2.4s-3.79-1.37-3.79-2.4V257.69a.55.55,0,0,0-.59-.61H375a.58.58,0,0,0-.62.61v14c0,1.82,1,4,5.78,4,3.83,0,5.77-1.35,5.77-4v-14A.55.55,0,0,0,385.35,257.08Zm260.43,0H645a.57.57,0,0,0-.61.61v17.19a.57.57,0,0,0,.61.61h.78a.56.56,0,0,0,.6-.61V257.69A.56.56,0,0,0,645.78,257.08Zm-279.16,8.77-5-1.91a2.06,2.06,0,0,1-1.46-1.95v-1c0-1.18.43-2.37,3.61-2.37s3.6,1.19,3.6,2.37v1.13a.56.56,0,0,0,.59.61h.76a.55.55,0,0,0,.61-.61v-1.29c0-2.64-1.87-4-5.56-4s-5.57,1.35-5.57,4v1.42a3.66,3.66,0,0,0,2.45,3.37l4.87,1.89c1,.37,2,.92,2,2.15v1.87c0,1-.39,2.37-3.78,2.37s-3.75-1.36-3.75-2.37v-1.21a.57.57,0,0,0-.6-.64h-.77a.58.58,0,0,0-.61.64v1.36c0,1.82,1,4,5.75,4,3.8,0,5.72-1.34,5.72-4v-2.3A3.81,3.81,0,0,0,366.62,265.85Zm269.34,2c2.13-.51,3.21-1.77,3.21-3.75v-3c0-2.65-1.94-4-5.77-4h-5.11a.56.56,0,0,0-.59.61v17.19a.57.57,0,0,0,.62.61h.78a.55.55,0,0,0,.59-.61V268.1H634l3.37,6.9a.65.65,0,0,0,.66.5h.79a.63.63,0,0,0,.53-.24.49.49,0,0,0,0-.5Zm-2.56-1.53h-3.71v-7.45h3.71c3.4,0,3.79,1.37,3.79,2.4v2.65C637.19,265,636.8,266.33,633.4,266.33Zm-216,7.36h-7.88v-7h7.1a.57.57,0,0,0,.61-.61v-.55a.56.56,0,0,0-.61-.61h-7.1v-6.06h7.57a.56.56,0,0,0,.61-.61v-.58a.56.56,0,0,0-.61-.61h-8.94a.57.57,0,0,0-.61.61v17.19a.57.57,0,0,0,.59.62h9.27a.56.56,0,0,0,.61-.62v-.58A.56.56,0,0,0,417.43,273.69Zm-20.22-16.61H392.1a.57.57,0,0,0-.59.61v17.19a.57.57,0,0,0,.62.61h.78a.54.54,0,0,0,.58-.61v-6.44h3.72c3.83,0,5.78-1.34,5.78-4v-3.38C403,258.43,401,257.08,397.21,257.08Zm3.79,7.16c0,1-.39,2.4-3.79,2.4h-3.72v-7.76h3.72c3.4,0,3.79,1.37,3.79,2.4Zm262.1,10.55-5.32-17.17a.66.66,0,0,0-.68-.54h-.81a.64.64,0,0,0-.67.53l-5.32,17.16a.52.52,0,0,0,0,.51.51.51,0,0,0,.47.22h.76a.63.63,0,0,0,.65-.54l1.49-4.87h5.87l1.53,4.86a.65.65,0,0,0,.66.55h.81a.5.5,0,0,0,.52-.71Zm-8.87-6.42,2.11-6.68c.11-.37.23-.87.33-1.35.11.49.24,1,.36,1.4l2.05,6.63Zm-114-11.29h-.79a.62.62,0,0,0-.65.52l-4.11,13.29c-.1.32-.21.74-.31,1.14a10.67,10.67,0,0,0-.31-1.19L530,257.62a.62.62,0,0,0-.65-.54h-.86a.57.57,0,0,0-.48.2.54.54,0,0,0,0,.5L533.3,275a.65.65,0,0,0,.68.54h.81a.65.65,0,0,0,.68-.52l5.31-17.18a.56.56,0,0,0,0-.51A.54.54,0,0,0,540.27,257.08Zm-16.8,0h-.78a.57.57,0,0,0-.62.61v17.19a.57.57,0,0,0,.62.61h.78a.55.55,0,0,0,.59-.61V257.69A.55.55,0,0,0,523.47,257.08Zm-7.72,0H515a.57.57,0,0,0-.61.61v13.5c-.07-.15-.15-.29-.2-.39l-7.59-13.45a.57.57,0,0,0-.51-.27h-.7a.57.57,0,0,0-.61.61v17.19a.57.57,0,0,0,.61.61h.7a.55.55,0,0,0,.59-.61V261.37l.28.48,7.49,13.32a.56.56,0,0,0,.55.32h.71a.54.54,0,0,0,.58-.61V257.69A.54.54,0,0,0,515.75,257.08Zm52.32,10.78c2.13-.51,3.21-1.77,3.21-3.75v-3c0-2.65-1.94-4-5.77-4H560.4a.56.56,0,0,0-.58.61v17.19a.57.57,0,0,0,.61.61h.79a.55.55,0,0,0,.58-.61V268.1h4.32l3.36,6.91a.66.66,0,0,0,.67.49h.78a.65.65,0,0,0,.54-.24.52.52,0,0,0,0-.5Zm-2.56-1.53H561.8v-7.45h3.71c3.4,0,3.79,1.37,3.79,2.4v2.65C569.3,265,568.91,266.33,565.51,266.33Zm-10.94,7.36h-7.88v-7h7.09a.57.57,0,0,0,.61-.61v-.55a.56.56,0,0,0-.61-.61h-7.09v-6.06h7.56a.56.56,0,0,0,.61-.61v-.58a.56.56,0,0,0-.61-.61h-8.93a.57.57,0,0,0-.62.61v17.19a.58.58,0,0,0,.59.62h9.28a.57.57,0,0,0,.61-.62v-.58A.56.56,0,0,0,554.57,273.69Zm30-7.84-5-1.91a2,2,0,0,1-1.46-1.95v-1c0-1.18.43-2.37,3.6-2.37s3.61,1.19,3.61,2.37v1.13a.55.55,0,0,0,.59.61h.76a.55.55,0,0,0,.61-.61v-1.29c0-2.64-1.88-4-5.57-4s-5.56,1.35-5.56,4v1.42a3.65,3.65,0,0,0,2.44,3.37l4.88,1.89c1,.37,2,.92,2,2.15v1.87c0,1-.39,2.37-3.79,2.37s-3.74-1.36-3.74-2.37v-1.21a.57.57,0,0,0-.6-.64h-.77a.58.58,0,0,0-.61.64v1.36c0,1.82,1,4,5.75,4,3.79,0,5.72-1.34,5.72-4v-2.3A3.81,3.81,0,0,0,584.61,265.85Zm25.16-8.77H598.88a.54.54,0,0,0-.61.61v.58a.54.54,0,0,0,.61.61h4.44v16a.56.56,0,0,0,.61.61h.79a.55.55,0,0,0,.59-.61v-16h4.46a.57.57,0,0,0,.62-.61v-.58A.56.56,0,0,0,609.77,257.08Zm-169,0H440a.57.57,0,0,0-.62.61v17.19a.57.57,0,0,0,.62.61h.78a.55.55,0,0,0,.59-.61V257.69A.55.55,0,0,0,440.76,257.08Zm11.79-.21c-3.81,0-5.75,1.34-5.75,4v10.85c0,2.65,1.94,4,5.75,4s5.8-1.34,5.8-4V260.86C458.35,258.21,456.4,256.87,452.55,256.87Zm3.79,14.63c0,1-.39,2.4-3.79,2.4s-3.76-1.37-3.76-2.4V261.07c0-1,.39-2.4,3.76-2.4s3.79,1.37,3.79,2.4Zm-25.4-3.64c2.13-.51,3.21-1.77,3.21-3.75v-3c0-2.65-1.94-4-5.78-4h-5.1a.56.56,0,0,0-.59.61v17.19a.57.57,0,0,0,.61.61h.79a.54.54,0,0,0,.58-.61V268.1H429l3.37,6.91a.65.65,0,0,0,.66.49h.79a.6.6,0,0,0,.53-.24.54.54,0,0,0,0-.5Zm-2.57-1.53h-3.71v-7.45h3.71c3.41,0,3.8,1.37,3.8,2.4v2.65C432.17,265,431.78,266.33,428.37,266.33Zm190.1-8.71a.67.67,0,0,0-.68-.54H617a.66.66,0,0,0-.67.53L611,274.77a.5.5,0,0,0,0,.51.52.52,0,0,0,.48.21h.75a.62.62,0,0,0,.65-.53l1.48-4.87h5.88l1.52,4.86a.64.64,0,0,0,.66.54h.82a.52.52,0,0,0,.47-.21.49.49,0,0,0,0-.49Zm-3.55,10.75,2.1-6.68c.11-.37.24-.87.34-1.35.11.49.24,1,.35,1.4l2.06,6.63ZM498.65,257.08h-.79a.57.57,0,0,0-.61.61V271.5c0,1-.39,2.4-3.79,2.4s-3.79-1.37-3.79-2.4V257.69a.55.55,0,0,0-.59-.61h-.78a.57.57,0,0,0-.61.61v14c0,1.82,1,4,5.77,4,3.83,0,5.78-1.35,5.78-4v-14A.56.56,0,0,0,498.65,257.08Zm95.28,0h-.79a.57.57,0,0,0-.61.61v17.19a.57.57,0,0,0,.61.61h.79a.55.55,0,0,0,.58-.61V257.69A.55.55,0,0,0,593.93,257.08ZM472,267.86c2.13-.51,3.21-1.76,3.21-3.75v-3c0-2.66-1.94-4-5.77-4h-5.11a.56.56,0,0,0-.59.61v17.19a.58.58,0,0,0,.62.61h.78a.55.55,0,0,0,.59-.61V268.1h4.32l3.36,6.91a.66.66,0,0,0,.67.49h.78a.61.61,0,0,0,.53-.24.51.51,0,0,0,0-.51Zm-2.56-1.53h-3.71v-7.45h3.71c3.4,0,3.79,1.37,3.79,2.4v2.65C473.26,265,472.87,266.33,469.47,266.33Z" transform="translate(-37.92 -37.38)"/><path class="cls-1" d="M448.62,170.73h-.79a.57.57,0,0,0-.61.61v17.19a.57.57,0,0,0,.61.61h.79a.55.55,0,0,0,.59-.61V171.34A.55.55,0,0,0,448.62,170.73Zm-11.4,10.78c2.13-.5,3.22-1.77,3.22-3.75v-3c0-2.65-1.95-4-5.78-4h-5.11a.57.57,0,0,0-.59.61v17.19a.58.58,0,0,0,.62.62h.79a.56.56,0,0,0,.58-.62v-6.78h4.32l3.37,6.91a.66.66,0,0,0,.66.5h.79a.61.61,0,0,0,.52-.25.49.49,0,0,0,0-.5ZM434.66,180H431v-7.45h3.71c3.4,0,3.79,1.37,3.79,2.4v2.65C438.45,178.61,438.06,180,434.66,180Zm32.8-9.25h-.71a.58.58,0,0,0-.62.61v13.49c-.07-.14-.14-.27-.2-.37L458.35,171a.58.58,0,0,0-.51-.27h-.71a.57.57,0,0,0-.61.61v17.19a.57.57,0,0,0,.61.61h.71a.55.55,0,0,0,.59-.61V175l.28.48,7.48,13.32a.57.57,0,0,0,.56.32h.71a.55.55,0,0,0,.58-.61V171.34A.55.55,0,0,0,467.46,170.73ZM366.62,179.5l-5-1.91a2,2,0,0,1-1.46-2v-1c0-1.18.43-2.38,3.61-2.38s3.6,1.2,3.6,2.38v1.13a.56.56,0,0,0,.59.61h.76a.55.55,0,0,0,.61-.61v-1.29c0-2.64-1.87-4-5.56-4s-5.57,1.35-5.57,4v1.42a3.66,3.66,0,0,0,2.45,3.37l4.87,1.88c1,.38,2,.93,2,2.16v1.86c0,1-.39,2.38-3.78,2.38s-3.75-1.36-3.75-2.38V184a.57.57,0,0,0-.6-.64h-.77a.58.58,0,0,0-.61.64v1.36c0,1.82,1,4,5.75,4,3.8,0,5.72-1.34,5.72-4v-2.3A3.81,3.81,0,0,0,366.62,179.5Zm33.73-8.77h-5.1a.57.57,0,0,0-.59.61v17.19a.57.57,0,0,0,.61.61h.79a.55.55,0,0,0,.58-.61V182.1h3.71c3.83,0,5.78-1.35,5.78-4v-3.38C406.13,172.07,404.18,170.73,400.35,170.73Zm3.79,7.16c0,1-.39,2.4-3.79,2.4h-3.71v-7.76h3.71c3.4,0,3.79,1.37,3.79,2.41Zm18,9.45h-7.88v-7h7.1a.57.57,0,0,0,.61-.61v-.54a.56.56,0,0,0-.61-.62h-7.1v-6.06h7.57a.55.55,0,0,0,.61-.61v-.58a.55.55,0,0,0-.61-.61H412.9a.58.58,0,0,0-.62.61v17.19a.57.57,0,0,0,.59.61h9.27a.56.56,0,0,0,.61-.61V188A.56.56,0,0,0,422.14,187.34Zm-35.22-16.61h-.79a.57.57,0,0,0-.61.61v13.81c0,1-.39,2.41-3.79,2.41s-3.79-1.37-3.79-2.41V171.34a.55.55,0,0,0-.58-.61h-.79a.57.57,0,0,0-.61.61v14c0,2.65,1.94,4,5.77,4s5.77-1.34,5.77-4v-14A.54.54,0,0,0,386.92,170.73Zm97.95,0H474a.54.54,0,0,0-.61.61v.58a.54.54,0,0,0,.61.61h4.45v16a.55.55,0,0,0,.61.61h.79a.55.55,0,0,0,.58-.61v-16h4.47a.55.55,0,0,0,.61-.61v-.58A.55.55,0,0,0,484.87,170.73Zm100.89-.21c-3.8,0-5.64,1.31-5.64,4v10.85c0,2.69,1.84,4,5.64,4s5.64-1.3,5.64-4v-1.7a.53.53,0,0,0-.58-.59h-.76a.56.56,0,0,0-.62.59v1.49c0,1.12-.41,2.41-3.68,2.41s-3.66-1.29-3.66-2.41V174.72c0-1.18.43-2.4,3.66-2.4s3.68,1.28,3.68,2.4v1.16a.58.58,0,0,0,.62.63h.76a.55.55,0,0,0,.58-.63v-1.37C591.4,171.83,589.55,170.52,585.76,170.52Zm13.25.21h-.79a.57.57,0,0,0-.61.61v17.19a.57.57,0,0,0,.61.61H599a.54.54,0,0,0,.58-.61V171.34A.54.54,0,0,0,599,170.73Zm18.88,17.71-5.31-17.17a.67.67,0,0,0-.68-.54h-.82a.65.65,0,0,0-.67.52l-5.32,17.18a.5.5,0,0,0,.51.71h.77a.62.62,0,0,0,.65-.52l1.48-4.88h5.88l1.53,4.86a.63.63,0,0,0,.65.54h.81a.57.57,0,0,0,.48-.21A.5.5,0,0,0,617.89,188.44ZM609,182l2.1-6.69c.11-.35.23-.86.33-1.34.12.51.25,1,.36,1.4l2,6.63Zm-36.52-11.29h-.71a.57.57,0,0,0-.61.61v13.5l-.21-.38L563.4,171a.58.58,0,0,0-.51-.27h-.71a.57.57,0,0,0-.61.61v17.19a.57.57,0,0,0,.61.61h.71a.55.55,0,0,0,.59-.61V175l.28.48,7.48,13.31a.57.57,0,0,0,.56.33h.71a.55.55,0,0,0,.58-.61V171.34A.55.55,0,0,0,572.51,170.73Zm-54.09,0h-.7a.57.57,0,0,0-.62.61v13.49c-.07-.14-.14-.27-.2-.37L509.31,171a.56.56,0,0,0-.5-.27h-.71a.57.57,0,0,0-.61.61v17.19a.57.57,0,0,0,.61.61h.71a.55.55,0,0,0,.58-.61V175c.1.16.19.33.28.48l7.49,13.32a.56.56,0,0,0,.56.32h.7a.55.55,0,0,0,.59-.61V171.34A.55.55,0,0,0,518.42,170.73Zm36.33,16.61h-7.88v-7H554a.57.57,0,0,0,.61-.61v-.54a.56.56,0,0,0-.61-.62h-7.1v-6.06h7.57a.56.56,0,0,0,.61-.61v-.58a.56.56,0,0,0-.61-.61H545.5a.57.57,0,0,0-.61.61v17.19a.56.56,0,0,0,.58.61h9.28a.55.55,0,0,0,.61-.61V188A.56.56,0,0,0,554.75,187.34Zm-54.09,0h-7.87v-7h7.09a.56.56,0,0,0,.61-.61v-.54a.56.56,0,0,0-.61-.62h-7.09v-6.06h7.56a.55.55,0,0,0,.61-.61v-.58a.55.55,0,0,0-.61-.61h-8.93a.57.57,0,0,0-.62.61v17.19a.57.57,0,0,0,.59.61h9.27a.56.56,0,0,0,.62-.61V188A.56.56,0,0,0,500.66,187.34Zm31.43-16.61H526.9a.56.56,0,0,0-.58.61v17.19a.55.55,0,0,0,.58.61h5.19c4.78,0,5.77-2.17,5.77-4V174.72C537.86,172.9,536.87,170.73,532.09,170.73Zm3.79,14.21c0,1-.39,2.4-3.79,2.4H528.3V172.53h3.79c3.4,0,3.79,1.37,3.79,2.41Z" transform="translate(-37.92 -37.38)"/><path class="cls-1" d="M630.1,127.56c4,2,9.95,3.14,16.5,3.14h2.5c6.55,0,12.22-1.14,16.2-3.13,5.83-2.91,8.67-7.49,8.67-12.9V61.75h-12.4v52.92c0,1-1.51,2.46-2.18,2.78-1.09.55-4.14,2.19-11.16,2.19h-1.62a24.23,24.23,0,0,1-10.2-2.35v-.43a3,3,0,0,1-1.73-2.19V61.75H621.25v52.92C621.25,120.08,624.28,124.66,630.1,127.56ZM330,88.42c-4.12-.83-9.75-2-12.12-4.28a5.5,5.5,0,0,1-1.5-4.26A6.69,6.69,0,0,1,318.72,75c2.1-1.61,6.58-2.68,11.14-2.68,4.78,0,8.06,1.16,9.2,2.31a1,1,0,0,1,.39.84l-.05,4,13.52.22,0-4.1a12.45,12.45,0,0,0-3.75-9c-4.09-4.13-11.37-6.49-20-6.49-7.65,0-14.81,2-19.11,5.27A18.63,18.63,0,0,0,303,79.53a17.33,17.33,0,0,0,5.82,13.77c4.68,4,11.85,5.73,18.2,7,15.58,3.2,15.52,9.07,15.5,10.92a6.45,6.45,0,0,1-3.26,5.22,18.35,18.35,0,0,1-10.29,2.68,34.75,34.75,0,0,1-7.64-.9c-2.87-.67-4.88-2.55-5-3.88l-.22-3.76L303,110.37l-.08,4c-.13,6.93,5.17,12.74,13.91,15.19A48.65,48.65,0,0,0,329,131.13c5.15,0,12.49-.8,18.19-4.63,5.53-3.77,8.64-9.12,8.77-15.11C356.12,95.81,342.17,90.93,330,88.42Zm278.85,25.82V76.68c0-10.4-11.54-14.93-23.3-14.93H555.09V130h29.69C596.54,130,608.84,125.19,608.84,114.24ZM568.53,74.15h16.9c5.56,0,10.15,1.82,10.15,2.95,0,1.36,0,3.58,0,6.14,0,8.6.14,28.28-.27,31.92-.88,1.26-5,3.45-10.56,3.45H568.53ZM373.85,127.56c4,2,10,3.14,16.56,3.14H393c6.55,0,12.63-1.14,16.61-3.13,5.83-2.91,9.08-7.49,9.08-12.9V61.75H405.2v52.92c0,1-1.39,2.46-2.06,2.78-1.08.55-4,2.19-11.05,2.19h-1.62a21.33,21.33,0,0,1-9.78-2.78h0a2.52,2.52,0,0,1-1.33-2.19V61.75H364.88v52.92C364.88,120.08,368,124.66,373.85,127.56Zm70.63-40.49L472,130h11.79V61.75h-12.4v42.11L442.21,61.75H430V130h14.47Zm50.65,27.25c0,5.29,3.89,9.75,9.53,12.56a31.8,31.8,0,0,0,12.18,3V130h27.91V118.61h-24.7c-5.44,0-9.68-1-10.51-2.22-.3-1.93-.27-10.19-.23-12.26h35.44V90.69H508.57V74.15h36.18V61.75H495.13Z" transform="translate(-37.92 -37.38)"/></svg>