<svg id="OBJECTS" xmlns="http://www.w3.org/2000/svg" xmlns:xlink="http://www.w3.org/1999/xlink" viewBox="0 0 718.41 626.24"><defs><style>.cls-1{fill:url(#Degradado_sin_nombre_28);}.cls-2{opacity:0.72;fill:url(#Degradado_sin_nombre_5);}</style><linearGradient id="Degradado_sin_nombre_28" x1="737.17" y1="-91.25" x2="286.2" y2="447.44" gradientUnits="userSpaceOnUse"><stop offset="0" stop-color="#84b7de"/><stop offset="0.81" stop-color="#fff"/></linearGradient><linearGradient id="Degradado_sin_nombre_5" x1="726.83" y1="-69.73" x2="274.5" y2="470.59" gradientUnits="userSpaceOnUse"><stop offset="0" stop-color="#d0d1d6"/><stop offset="0.73" stop-color="#fdfdfd"/><stop offset="0.76" stop-color="#fff"/></linearGradient></defs><title>nube-centro</title><path class="cls-1" d="M744.17,5.3V592.59c-90.42,39-204.75,22.07-277.62-43.38-22.59-20.31-41.88-45-69-59.08-59.54-31-143.92-5.08-192.46-50.67C163.12,400.07,174.29,330.68,143,282.9c-13.58-20.74-31.86-38.55-51.8-53.71C18.42,173.92,11.06,48.79,83.84,5.3Z" transform="translate(-25.77 -5.3)"/><path class="cls-2" d="M727.41,21.72l16.76,587.52c-90.23,39.34-221.1,26.83-293.82-39.16-22.54-20.47-41.79-45.31-68.89-59.56-59.41-31.26-143.63-5.12-192.06-51.08-41.86-39.71-30.71-109.68-62-157.84-13.55-20.91-31.79-38.87-51.69-54.16C3.13,191.72,12.55,49.15,85.18,5.3Z" transform="translate(-25.77 -5.3)"/></svg>